<svg width="146" height="33" viewBox="0 0 146 33" fill="none" xmlns="http://www.w3.org/2000/svg">
<g clip-path="url(#clip0_137_47594)">
<path d="M59.2511 6.55981L58.197 6.55334V6.53393V2.61353H56.0627V9.59392H51.2309L51.2375 5.56354L54.9955 5.54413V3.55158H49.1882V11.6124H56.0627V14.8794H58.197V8.52648L59.2511 8.53295V14.8794H61.3658V2.61353H59.2511V6.55981Z" fill="#424242"/>
<path d="M101.29 8.00259V2.63306H93.4989V4.6062H99.1949V8.00906H97.3683V6.01004H95.2208V8.00906H91.1616V10.0663H94.6054C94.3566 10.545 94.2257 11.0755 94.2257 11.6513C94.2257 12.6023 94.5792 13.4304 95.2666 14.1161C95.9541 14.7954 96.7987 15.1447 97.7611 15.1447C98.7235 15.1447 99.5746 14.7954 100.262 14.1161C100.95 13.4304 101.297 12.6087 101.297 11.6578C101.297 11.082 101.166 10.5515 100.917 10.0728H103.706V8.01553H101.297L101.29 8.00259ZM98.8741 12.7511C98.5664 13.0551 98.1997 13.2104 97.7545 13.2104C97.3093 13.2104 96.9492 13.0616 96.635 12.7511C96.3273 12.447 96.1701 12.0783 96.1701 11.6448C96.1701 11.2114 96.3207 10.8426 96.635 10.5321C96.9427 10.2216 97.3159 10.0663 97.7545 10.0663C98.1932 10.0663 98.5598 10.2216 98.8675 10.5321C99.1818 10.8491 99.3324 11.2114 99.3324 11.6448C99.3324 12.0783 99.1818 12.4405 98.8675 12.7511H98.8741Z" fill="#424242"/>
<path d="M114.443 5.61526V10.2408H111.104V9.62624C111.713 9.41276 112.224 9.044 112.616 8.53293C113.035 7.9895 113.245 7.35551 113.245 6.65683C113.245 6.38511 113.212 6.12634 113.153 5.88698C113.114 5.74465 113.055 5.61526 113.003 5.48588H113.828V3.55155H111.169V2.2124H109.029V3.55155H106.194V5.49235C106.194 5.49235 107.032 5.49235 107.11 5.49235C107.058 5.6282 106.992 5.75759 106.96 5.89345C106.901 6.13281 106.868 6.39158 106.868 6.66329C106.868 7.38139 107.084 8.01538 107.51 8.5588C107.916 9.08282 108.439 9.4451 109.048 9.65859V10.2473H105.775V12.2398H114.443V14.8793H116.577V2.63291H114.443C114.443 2.63291 114.43 5.03949 114.443 5.62173V5.61526ZM110.056 7.86659C109.736 7.86659 109.467 7.75661 109.232 7.52371C108.996 7.29729 108.885 7.02558 108.885 6.70858C108.885 6.39158 108.996 6.11987 109.232 5.89345C109.461 5.66055 109.736 5.55057 110.056 5.55057C110.377 5.55057 110.652 5.66055 110.881 5.89345C111.117 6.12634 111.228 6.39158 111.228 6.70858C111.228 7.02558 111.117 7.29729 110.881 7.52371C110.652 7.75014 110.377 7.86659 110.056 7.86659Z" fill="#424242"/>
<path d="M123.543 9.67166C124.565 9.67166 125.455 9.30938 126.175 8.59128C126.896 7.87319 127.262 6.99983 127.262 5.99708C127.262 4.99434 126.896 4.10804 126.175 3.39642C125.455 2.68479 124.565 2.32251 123.543 2.32251C122.522 2.32251 121.645 2.68479 120.918 3.39642C120.191 4.10804 119.818 4.98787 119.818 5.99708C119.818 7.0063 120.185 7.86672 120.918 8.59128C121.645 9.30938 122.529 9.67166 123.543 9.67166ZM122.365 4.81967C122.692 4.48973 123.079 4.33447 123.543 4.33447C124.008 4.33447 124.388 4.4962 124.715 4.81967C125.043 5.1496 125.206 5.53129 125.206 5.99708C125.206 6.46287 125.043 6.83809 124.722 7.16156C124.395 7.48503 124.008 7.64029 123.543 7.64029C123.079 7.64029 122.692 7.48503 122.365 7.16156C122.038 6.83809 121.88 6.45641 121.88 5.99708C121.88 5.53776 122.038 5.15607 122.365 4.81967Z" fill="#424242"/>
<path d="M128.709 10.2603H119.655V12.3175H128.709V14.9117H130.889V2.61353H128.709V10.2603Z" fill="#424242"/>
<path d="M74.3028 4.32155V2.63306H72.1619V9.96927H74.3028V6.33998H76.5288V4.32802C76.5288 4.32802 74.3289 4.32802 74.3028 4.32802V4.32155Z" fill="#424242"/>
<path d="M69.2943 9.03765C69.9162 8.42307 70.2371 7.66616 70.2371 6.7928C70.2371 6.44346 70.1847 6.11352 70.0865 5.80299C70.021 5.60244 69.9293 5.40836 69.8246 5.22722H70.5644V3.43522H67.9718V2.1543H66.0731C66.0731 2.1543 66.0731 3.41581 66.0731 3.43522C66.0404 3.43522 63.4084 3.43522 63.4084 3.43522V5.24663H64.2137C64.1155 5.4213 64.0304 5.60891 63.9649 5.80299C63.8602 6.10705 63.8078 6.44346 63.8078 6.7928C63.8078 7.66616 64.1221 8.42307 64.7506 9.03765C65.3791 9.65224 66.1386 9.96923 67.0224 9.96923C67.9063 9.96923 68.6723 9.65224 69.2943 9.03765ZM65.7785 6.81221C65.7785 6.11999 66.3415 5.56363 67.0421 5.56363C67.7426 5.56363 68.3057 6.12646 68.3057 6.81221C68.3057 7.49795 67.7361 8.06079 67.0421 8.06079C66.3481 8.06079 65.7785 7.49795 65.7785 6.81221Z" fill="#424242"/>
<path d="M69.0061 12.8739V10.6484H66.9373V14.8794H74.3158V12.8739C74.3158 12.8739 69.0323 12.8868 69.0127 12.8739H69.0061Z" fill="#424242"/>
<path d="M88.1826 4.77428V2.62646H86.0482V8.18361L85.7209 7.93131C85.7209 7.93131 84.2478 6.67626 83.7109 6.19106C83.1741 5.70586 82.7289 5.20772 82.7289 5.19478C82.7616 4.96836 82.8664 4.48316 82.8664 3.87504V2.62646H80.5618V3.87504C80.5618 5.4859 79.3833 6.44983 78.9119 6.89622C78.4405 7.34907 77.0264 8.30006 77.0264 8.30006L78.3685 9.77506C78.3685 9.77506 79.4946 9.06991 80.0904 8.57177C80.66 8.09951 81.1445 7.60137 81.5635 7.09677C81.9105 7.41376 82.5783 7.96365 83.1741 8.46179C82.8074 8.62999 82.4604 8.86289 82.1527 9.16695C81.4587 9.84623 81.1117 10.6743 81.1117 11.6382C81.1117 12.6022 81.4653 13.4173 82.1527 14.103C82.8467 14.7823 83.6847 15.1317 84.6472 15.1317C85.6096 15.1317 86.4607 14.7823 87.1482 14.103C87.8356 13.4173 88.1826 12.5957 88.1826 11.6447V6.7733H90.4086V4.77428H88.1826ZM85.7667 12.751C85.4525 13.055 85.0858 13.2103 84.6472 13.2103C84.2085 13.2103 83.8419 13.0615 83.5276 12.751C83.2199 12.4469 83.0628 12.0781 83.0628 11.6447C83.0628 11.2113 83.2134 10.8425 83.5276 10.532C83.8419 10.2214 84.202 10.0662 84.6472 10.0662C85.0924 10.0662 85.4525 10.2214 85.7667 10.532C86.081 10.849 86.2316 11.2113 86.2316 11.6447C86.2316 12.0781 86.081 12.4404 85.7667 12.751Z" fill="#424242"/>
<path d="M140.834 11.4311V9.28979H138.687C138.687 9.28979 138.687 11.4247 138.687 11.4311H133.462V13.4431H146.007V11.4311C146.007 11.4311 140.861 11.4311 140.834 11.4311Z" fill="#424242"/>
<path d="M139.656 6.61803C141.149 8.14479 143.794 9.53569 143.794 9.53569L145.103 7.90543C142.484 6.4563 141.253 5.26594 140.769 4.70958C140.9 4.30848 140.972 3.88798 140.972 3.44806V2.56177H138.7V3.39631C138.7 3.79094 138.739 5.58294 134.49 7.91836L135.898 9.42572C135.898 9.42572 138.15 8.38416 139.656 6.61803Z" fill="#424242"/>
<path d="M56.0038 26.3623C55.7746 26.2394 55.5324 26.0776 55.2705 25.8836C55.0086 25.6895 54.7467 25.4825 54.4914 25.256C54.2361 25.0296 54.0004 24.8032 53.7843 24.5638C53.5683 24.3245 53.3915 24.098 53.254 23.8845C53.1296 24.0786 52.9594 24.2986 52.7433 24.5444C52.5273 24.7838 52.2981 25.0231 52.0559 25.256C51.7809 25.5083 51.5059 25.7412 51.2179 25.9612C50.9298 26.1811 50.6614 26.3688 50.406 26.5176L49.2996 25.3466C49.8692 24.9584 50.3733 24.5379 50.8119 24.0786C51.244 23.6193 51.5583 23.2053 51.7547 22.8236C51.9184 22.5001 52.0493 22.0861 52.1475 21.575C52.2457 21.0639 52.2981 20.5852 52.2981 20.1323V18.8126H54.164V20.1065C54.164 20.5981 54.223 21.1157 54.3408 21.6526C54.4587 22.1896 54.6027 22.6295 54.7795 22.9724C54.9693 23.3476 55.264 23.7357 55.6568 24.1239C56.0496 24.5121 56.5079 24.8679 57.0251 25.1784L56.0038 26.3493V26.3623ZM57.7322 18.3145H59.5457V28.9759H57.7322V22.4872H55.5782V20.9669H57.7322V18.3145Z" fill="#424242"/>
<path d="M61.3594 25.1009V23.7811H73.0656V25.1009H68.1618V25.696H70.7872V28.7819H65.4709V29.293H71.0163V30.6645H63.5657V27.5527H68.8951V27.0546H63.5657V25.696H66.2631V25.1009H61.3594ZM69.4254 18.6639C70.0408 19.2267 70.3551 19.8995 70.3551 20.6694C70.3551 21.4392 70.0474 22.1185 69.4254 22.6813C68.81 23.2442 68.0636 23.5223 67.1928 23.5223C66.3221 23.5223 65.5757 23.2442 64.9603 22.6813C64.3448 22.1185 64.0306 21.4522 64.0306 20.6694C64.0306 19.8866 64.3383 19.2267 64.9603 18.6639C65.5757 18.1011 66.3221 17.8164 67.1928 17.8164C68.0636 17.8164 68.81 18.1011 69.4254 18.6639ZM66.178 21.6592C66.4661 21.9309 66.8 22.0667 67.1928 22.0667C67.5857 22.0667 67.9196 21.9309 68.2076 21.6592C68.4957 21.3875 68.6332 21.0575 68.6332 20.6694C68.6332 20.2812 68.4957 19.9448 68.2142 19.6796C67.9326 19.4143 67.5922 19.2849 67.1928 19.2849C66.7935 19.2849 66.453 19.4143 66.1715 19.6796C65.89 19.9448 65.7459 20.2747 65.7459 20.6694C65.7459 21.064 65.89 21.3875 66.178 21.6592Z" fill="#424242"/>
<path d="M74.113 25.2496C74.6564 25.0167 75.1802 24.7385 75.6843 24.4086C76.1884 24.0786 76.6467 23.7163 77.0526 23.3088C77.4782 22.8883 77.8317 22.4354 78.1133 21.9632C78.3948 21.4844 78.565 20.9992 78.6305 20.4946H74.9903V19.0002H80.6863C80.6797 19.8283 80.5422 20.6175 80.2869 21.368C80.025 22.1249 79.6584 22.8171 79.1739 23.4576C78.709 24.0592 78.1525 24.6091 77.4978 25.1072C76.8431 25.6054 76.1033 26.0259 75.2784 26.3623L74.1064 25.2431L74.113 25.2496ZM82.2576 18.3145H84.0711V28.9759H82.2576V18.3145Z" fill="#424242"/>
<path d="M85.8716 24.6416V23.2442H97.5778V24.6416H92.6871V25.3985H95.319V28.659H90.0028V29.2671H95.5482V30.6645H88.0976V27.3781H93.4269V26.7829H88.0976V25.3985H90.795V24.6416H85.8781H85.8716ZM92.3597 21.3552C92.0848 21.1417 91.8818 20.9282 91.7312 20.7212C91.5872 20.9217 91.3908 21.1158 91.1485 21.3163C90.9063 21.5169 90.6313 21.7045 90.3301 21.8921C89.9831 22.0991 89.6165 22.2867 89.2237 22.4679C88.8309 22.6426 88.4446 22.7913 88.0518 22.9078L87.2596 21.711C87.6393 21.5881 88.0845 21.4134 88.5821 21.187C89.0797 20.9605 89.4856 20.7082 89.7933 20.43C90.0028 20.2489 90.2057 20.016 90.4087 19.7184C90.6051 19.4208 90.7099 19.1232 90.7099 18.8192V18.3081H92.7133V18.8192C92.7133 19.1685 92.8246 19.5049 93.0537 19.8219C93.2829 20.1389 93.5186 20.3912 93.7608 20.5788C94.062 20.8053 94.4352 21.0252 94.8869 21.2452C95.3387 21.4651 95.7577 21.6139 96.144 21.698L95.3845 22.9078C95.0768 22.8237 94.7298 22.7008 94.3566 22.539C93.9769 22.3708 93.6168 22.1897 93.2632 21.9827C92.9359 21.7886 92.6347 21.5816 92.3663 21.3616L92.3597 21.3552Z" fill="#424242"/>
<path d="M100.969 22.746H102.671V26.0841H103.804V22.746H105.506V26.0841H109.703V27.5786H98.2456V26.0841H100.969V22.746ZM105.958 25.2755C106.056 24.5315 106.135 23.7034 106.2 22.7977C106.259 21.892 106.279 21.1028 106.259 20.43H100.236V18.9355H108.073C108.092 19.8154 108.06 20.8634 107.981 22.0861C107.903 23.3088 107.804 24.3698 107.687 25.2755H105.958Z" fill="#424242"/>
<path d="M110.449 25.5278V24.0722H122.057V25.5278H118.816V26.5759H119.936V30.8456H118.122V28.0444H112.413V26.5759H113.847V25.5278H110.456H110.449ZM118.522 18.7674C119.144 19.3432 119.458 20.0354 119.458 20.8441C119.458 21.6527 119.144 22.3449 118.515 22.9142C117.887 23.49 117.127 23.7747 116.224 23.7747C115.32 23.7747 114.561 23.4835 113.932 22.9142C113.304 22.3385 112.989 21.6463 112.989 20.8441C112.989 20.0419 113.297 19.3432 113.919 18.7674C114.541 18.1916 115.307 17.907 116.217 17.907C117.127 17.907 117.893 18.1916 118.515 18.7674H118.522ZM115.196 21.8921C115.49 22.1832 115.831 22.3255 116.224 22.3255C116.617 22.3255 116.97 22.1832 117.258 21.8921C117.546 21.6074 117.697 21.2581 117.697 20.8441C117.697 20.43 117.553 20.0936 117.258 19.809C116.964 19.5243 116.623 19.3755 116.224 19.3755C115.824 19.3755 115.49 19.5178 115.196 19.809C114.901 20.0936 114.751 20.443 114.751 20.8441C114.751 21.2452 114.901 21.6074 115.196 21.8921ZM115.654 26.5759H117.003V25.5278H115.654V26.5759Z" fill="#424242"/>
<path d="M126.87 24.5962C126.496 24.2209 126.202 23.8587 125.986 23.4964C125.757 23.891 125.429 24.318 124.997 24.7708C124.565 25.2237 124.152 25.5924 123.753 25.8706L122.634 24.7644C123.079 24.415 123.458 24.0527 123.779 23.6905C124.094 23.3217 124.342 22.9659 124.513 22.6166C124.676 22.2737 124.801 21.8661 124.892 21.4003C124.984 20.9281 125.03 20.4817 125.03 20.0612V18.7414H126.856V20.0612C126.856 20.4299 126.896 20.8375 126.981 21.2903C127.059 21.7432 127.171 22.1119 127.295 22.4031C127.439 22.7071 127.642 23.0306 127.91 23.3735C128.172 23.7163 128.539 24.0657 129.017 24.4215L128.048 25.5666C127.642 25.2949 127.249 24.9779 126.876 24.6026L126.87 24.5962ZM127.917 26.5693V29.157H133.502V30.6514H126.104V26.5693H127.917ZM127.629 22.1249V20.6563H129.141V18.4762H130.857V26.7569H129.141V22.1249H127.629ZM131.61 18.3274H133.384V27.0674H131.61V18.3274Z" fill="#424242"/>
<path d="M141.227 21.6656V23.1212H137.81V24.6026L138.982 24.5897C139.564 24.5832 140.232 24.5509 140.992 24.4927C141.751 24.4344 142.491 24.3697 143.218 24.2792V25.7089C142.484 25.8253 141.62 25.9159 140.645 25.9806C139.662 26.0453 138.916 26.0712 138.412 26.0712H136.029V18.9096H141.489V20.417H137.81V21.6656H141.227ZM143.571 18.3145H145.385V28.9759H143.571V23.0953H141.705V21.575H143.571V18.3145Z" fill="#424242"/>
<path d="M25.2326 4.29561C25.4159 4.29561 25.5992 4.13388 25.5992 3.93333C25.5992 3.73278 25.4356 3.57104 25.2326 3.57104C25.0296 3.57104 24.866 3.73278 24.866 3.93333C24.866 4.13388 25.0296 4.29561 25.2326 4.29561Z" fill="url(#paint0_linear_137_47594)"/>
<path d="M18.2795 30.257C18.4628 30.257 18.6134 30.1082 18.6134 29.9271C18.6134 29.746 18.4628 29.5972 18.2795 29.5972C18.0961 29.5972 17.9456 29.746 17.9456 29.9271C17.9456 30.1082 18.0961 30.257 18.2795 30.257Z" fill="url(#paint1_linear_137_47594)"/>
<path d="M19.9883 4.41864C20.2829 4.41864 20.5186 4.18574 20.5186 3.89462C20.5186 3.6035 20.2829 3.37061 19.9883 3.37061C19.6937 3.37061 19.458 3.6035 19.458 3.89462C19.458 4.18574 19.6937 4.41864 19.9883 4.41864Z" fill="url(#paint2_linear_137_47594)"/>
<path d="M25.2783 9.64568C25.5467 9.64568 25.8152 9.40632 25.8152 9.1152C25.8152 8.82408 25.5795 8.58472 25.2783 8.58472C24.9771 8.58472 24.7415 8.82408 24.7415 9.1152C24.7415 9.40632 24.9771 9.64568 25.2783 9.64568Z" fill="url(#paint3_linear_137_47594)"/>
<path d="M25.2652 11.1401C25.4224 11.1401 25.5729 11.0042 25.5729 10.836C25.5729 10.6678 25.4355 10.532 25.2652 10.532C25.095 10.532 24.9575 10.6678 24.9575 10.836C24.9575 11.0042 25.095 11.1466 25.2652 11.1401Z" fill="url(#paint4_linear_137_47594)"/>
<path d="M25.2324 22.6038C25.0164 22.6038 24.8396 22.7784 24.8396 22.9984C24.8396 23.2183 25.0164 23.3865 25.2324 23.3865C25.4485 23.3865 25.6253 23.2119 25.6253 22.9984C25.6253 22.7849 25.4485 22.6038 25.2324 22.6038Z" fill="url(#paint5_linear_137_47594)"/>
<path d="M27.0004 11.2824C27.2491 11.2824 27.4914 11.0689 27.4914 10.8037C27.4914 10.5384 27.2753 10.325 27.0004 10.325C26.7254 10.325 26.5159 10.5384 26.5159 10.8037C26.5159 11.0689 26.7319 11.2889 27.0004 11.2824Z" fill="url(#paint6_linear_137_47594)"/>
<path d="M19.9686 27.9475C19.818 27.9475 19.7002 28.0704 19.7002 28.2128C19.7002 28.3551 19.8246 28.478 19.9686 28.478C20.1127 28.478 20.2371 28.3551 20.2371 28.2128C20.2371 28.0704 20.1192 27.9475 19.9686 27.9475Z" fill="url(#paint7_linear_137_47594)"/>
<path d="M19.9753 5.90658C20.1062 5.90658 20.2306 5.79014 20.2306 5.64781C20.2306 5.50549 20.1193 5.39551 19.9753 5.39551C19.8312 5.39551 19.7134 5.51196 19.7134 5.64781C19.7134 5.78367 19.8312 5.90658 19.9753 5.90658Z" fill="url(#paint8_linear_137_47594)"/>
<path d="M25.2718 6.15876C25.4748 6.15876 25.6843 5.97115 25.6843 5.7512C25.6843 5.53124 25.501 5.3501 25.2718 5.3501C25.0427 5.3501 24.8594 5.53124 24.8594 5.7512C24.8594 5.97115 25.0427 6.15876 25.2718 6.15876Z" fill="url(#paint9_linear_137_47594)"/>
<path d="M23.4451 5.85483C23.5499 5.85483 23.6481 5.76426 23.6481 5.64781C23.6481 5.53137 23.5564 5.44727 23.4451 5.44727C23.3338 5.44727 23.2356 5.53784 23.2356 5.64781C23.2356 5.75779 23.3273 5.85483 23.4451 5.85483Z" fill="url(#paint10_linear_137_47594)"/>
<path d="M18.3188 0.0581055C18.0569 0.0581055 17.8474 0.265124 17.8474 0.523897C17.8474 0.782669 18.0569 0.989688 18.3188 0.989688C18.5807 0.989688 18.7902 0.782669 18.7902 0.523897C18.7902 0.265124 18.5807 0.0581055 18.3188 0.0581055Z" fill="url(#paint11_linear_137_47594)"/>
<path d="M18.0242 28.1869C18.0242 28.2839 18.1027 28.3616 18.2009 28.3616C18.2991 28.3616 18.3777 28.2839 18.3777 28.1869C18.3777 28.0898 18.2991 28.0122 18.2009 28.0122C18.1027 28.0122 18.0242 28.0898 18.0242 28.1869Z" fill="url(#paint12_linear_137_47594)"/>
<path d="M18.3319 31.1692C18.0831 31.1692 17.8867 31.3697 17.8867 31.6091C17.8867 31.8485 18.0831 32.049 18.3319 32.049C18.5807 32.049 18.7771 31.8549 18.7771 31.6091C18.7771 31.3633 18.5742 31.1692 18.3319 31.1692Z" fill="url(#paint13_linear_137_47594)"/>
<path d="M18.5546 3.9398C18.5546 3.77807 18.4237 3.64868 18.2665 3.64868C18.1094 3.64868 17.9719 3.77807 17.9719 3.9398C17.9719 4.10153 18.1029 4.22445 18.2665 4.22445C18.4302 4.22445 18.5546 4.09506 18.5546 3.9398Z" fill="url(#paint14_linear_137_47594)"/>
<path d="M27.092 12.5958C27.092 12.5052 27.02 12.4341 26.9283 12.4341C26.8367 12.4341 26.7646 12.5052 26.7646 12.5958C26.7646 12.6864 26.8367 12.7575 26.9283 12.7575C27.0134 12.7575 27.092 12.6864 27.092 12.5958Z" fill="url(#paint15_linear_137_47594)"/>
<path d="M18.2861 1.78564C18.0438 1.78564 17.8474 1.97972 17.8474 2.21909C17.8474 2.45845 18.0438 2.659 18.2861 2.659C18.5283 2.659 18.7313 2.46492 18.7313 2.21909C18.7313 1.97325 18.5349 1.78564 18.2861 1.78564Z" fill="url(#paint16_linear_137_47594)"/>
<path d="M23.4516 27.9668C23.3272 27.9668 23.229 28.0638 23.229 28.1868C23.229 28.3097 23.3272 28.4067 23.4516 28.4067C23.576 28.4067 23.6742 28.3032 23.6742 28.1868C23.6742 28.0703 23.576 27.9668 23.4516 27.9668Z" fill="url(#paint17_linear_137_47594)"/>
<path d="M23.4451 7.62742C23.5499 7.62742 23.6481 7.53685 23.6481 7.4204C23.6481 7.30395 23.5564 7.21338 23.4451 7.21338C23.3338 7.21338 23.2356 7.30395 23.2356 7.4204C23.2356 7.53685 23.3273 7.62742 23.4451 7.62742Z" fill="url(#paint18_linear_137_47594)"/>
<path d="M23.4714 26.6084C23.5761 26.6084 23.6612 26.5243 23.6612 26.4208C23.6612 26.3173 23.5761 26.2332 23.4714 26.2332C23.3666 26.2332 23.2815 26.3173 23.2815 26.4208C23.2815 26.5243 23.3666 26.6084 23.4714 26.6084Z" fill="url(#paint19_linear_137_47594)"/>
<path d="M26.6533 14.3812C26.6533 14.5559 26.7974 14.6982 26.9741 14.6982C27.1313 14.6982 27.2949 14.5559 27.2949 14.3812C27.2949 14.2065 27.1509 14.0642 26.9741 14.0642C26.7974 14.0642 26.6533 14.2065 26.6533 14.3812Z" fill="url(#paint20_linear_137_47594)"/>
<path d="M21.7234 5.9648C21.8805 5.9648 22.0442 5.82248 22.0442 5.64781C22.0442 5.47314 21.9002 5.33081 21.7234 5.33081C21.5466 5.33081 21.4026 5.47314 21.4026 5.64781C21.4026 5.82248 21.5466 5.9648 21.7234 5.9648Z" fill="url(#paint21_linear_137_47594)"/>
<path d="M30.4965 21.7045C30.7453 21.7045 30.9417 21.504 30.9417 21.2646C30.9417 21.0253 30.7387 20.8247 30.4965 20.8247C30.2542 20.8247 30.0513 21.0188 30.0513 21.2646C30.0513 21.5105 30.2477 21.7045 30.4965 21.7045Z" fill="url(#paint22_linear_137_47594)"/>
<path d="M28.7157 20.9929C28.5651 20.9929 28.4407 21.1158 28.4407 21.2646C28.4407 21.4134 28.5651 21.5363 28.7157 21.5363C28.8662 21.5363 28.9906 21.4134 28.9906 21.2646C28.9906 21.1158 28.8662 20.9929 28.7157 20.9929Z" fill="url(#paint23_linear_137_47594)"/>
<path d="M23.4124 4.34101C23.648 4.34101 23.8772 4.13399 23.8772 3.88169C23.8772 3.62938 23.6677 3.42236 23.4124 3.42236C23.157 3.42236 22.9475 3.62938 22.9475 3.88169C22.9475 4.13399 23.157 4.34748 23.4124 4.34101Z" fill="url(#paint24_linear_137_47594)"/>
<path d="M23.5041 24.4929C23.3797 24.4929 23.2815 24.59 23.2815 24.7129C23.2815 24.8358 23.3797 24.9328 23.5041 24.9328C23.6285 24.9328 23.7267 24.8358 23.7267 24.7129C23.7267 24.59 23.6285 24.4929 23.5041 24.4929Z" fill="url(#paint25_linear_137_47594)"/>
<path d="M46.5565 -8.13297e-07H19.5432C19.4385 0.168202 19.2551 0.316996 19.2355 0.485198C19.2486 0.543422 19.2617 0.601646 19.2748 0.65987C19.4188 0.899235 19.6414 1.04803 19.6676 1.31974C19.7265 1.92139 18.9867 2.14134 19.4647 2.80768C19.5039 2.85944 19.7134 2.98236 19.864 2.98236C20.0866 2.98236 20.211 2.90472 20.3158 2.79475C20.3616 2.74946 20.4074 2.71064 20.4664 2.67183C20.8134 2.47775 21.2913 2.64595 21.3895 3.0988C21.4353 3.31876 21.3502 3.45462 21.2258 3.62282C21.1276 3.75867 21.1276 4.08214 21.2782 4.25034C21.4026 4.3862 21.5663 4.46383 21.7365 4.44442C21.8871 4.43148 22.0311 4.36679 22.1424 4.2374C22.3388 4.01098 22.293 3.7522 22.149 3.56459C21.946 3.30582 21.7954 2.89825 22.2472 2.58126C22.437 2.4454 22.8233 2.47128 23.0328 2.72358C23.1179 2.82709 23.262 2.87885 23.3994 2.87885C23.6024 2.87885 23.7334 2.78828 23.8512 2.6783C23.9952 2.54891 24.1327 2.34836 24.3357 2.34836C24.447 2.34836 24.5255 2.42599 24.6238 2.52303C24.8333 2.71711 25.01 2.79475 25.1737 2.79475C25.2916 2.79475 25.488 2.78181 25.6124 2.6136C25.7499 2.40012 25.8022 2.25779 26.0707 2.25779C26.2605 2.25779 26.398 2.35483 26.4897 2.65242C26.5617 2.76887 26.6272 2.86591 26.8105 2.9306C27.0593 3.00823 27.2164 2.9306 27.3473 2.80768C27.4848 2.68477 27.5896 2.62007 27.7664 2.62007C28.061 2.62007 28.3032 2.85944 28.3032 3.15056C28.3032 3.44168 28.0348 3.67457 27.7664 3.68104C27.642 3.68104 27.5045 3.60988 27.3735 3.51931C26.8432 3.19584 26.4635 3.4999 26.3522 3.81043C26.254 4.17918 26.4177 4.37326 26.6795 4.52205C26.7647 4.56734 26.9414 4.60616 27.1051 4.5544C27.3801 4.47677 27.583 4.09508 28.0348 4.35385C28.1854 4.43795 28.2705 4.59322 28.2836 4.74201C28.3032 4.91021 28.2508 5.09135 28.1133 5.20133C27.8187 5.43423 27.5241 5.35013 27.2688 5.15605C27.2033 5.10429 27.0724 5.0396 26.9414 5.02666C26.6468 4.99431 26.4504 5.15605 26.3718 5.2919C26.2867 5.42776 26.2605 5.68006 26.3718 5.88708C26.4504 5.99706 26.542 6.10704 26.6075 6.22349C26.7581 6.50167 26.673 6.81219 26.4766 6.99333C26.3194 7.12919 26.1885 7.18094 26.0052 7.17448C25.6386 7.17448 25.6124 6.90923 25.2523 6.90923C24.9904 6.90923 24.722 7.12919 24.722 7.43325C24.722 7.83435 25.0559 8.06077 25.4029 7.9702C25.704 7.89257 25.6778 7.65967 26.0968 7.65967C26.4438 7.65967 26.6861 7.92492 26.6926 8.26779C26.6926 8.41012 26.601 8.64948 26.3784 8.77887C26.3064 8.81768 26.2016 9.08939 26.2016 9.1735C26.2016 9.31582 26.2343 9.66516 26.6272 9.83984C26.8236 9.92394 26.9349 9.86571 26.9873 9.85277C27.4652 9.72339 27.3866 9.45168 27.8318 9.45168C28.2116 9.45168 28.336 9.94981 28.7026 9.94981C29.1216 9.94981 29.2525 9.43874 29.6585 9.43874C30.0316 9.43874 30.2608 9.67163 30.2608 10.021C30.2608 10.3315 29.9138 10.4803 29.9138 10.7585C29.9138 11.0949 30.1102 11.3472 30.503 11.3472C30.8107 11.3472 31.0268 11.069 31.0268 10.7844C31.0268 10.448 30.7322 10.4027 30.7322 10.0469C30.7322 9.83337 30.8369 9.66516 31.0203 9.57459C31.4982 9.33523 31.9041 9.74926 31.8321 10.1374C31.7732 10.4868 31.4786 10.4997 31.4786 10.849C31.4786 10.8685 31.4786 10.8814 31.4786 10.9008C31.544 11.2307 32.0612 11.4442 32.0154 11.8C31.9696 12.13 31.5375 12.2594 31.5506 12.6669C31.5702 13.0486 32.094 13.1651 31.8386 13.7214C31.7077 14.0061 31.3149 14.1937 30.9679 14.0061C30.7387 13.8896 30.7584 13.7926 30.5685 13.7214C30.3001 13.6179 29.9924 13.7344 29.8614 13.9673C29.6912 14.2778 29.809 14.5495 29.9531 14.7048C30.084 14.8342 30.1691 15.2288 29.9138 15.4811C29.796 15.5975 29.6323 15.6752 29.4686 15.6752C28.971 15.6752 29.1151 15.3129 28.5193 15.3129C28.4211 15.3129 28.3163 15.3582 28.1723 15.4681C28.061 15.5587 27.9693 15.7463 27.9693 15.8757C27.9693 16.445 28.4407 16.4256 28.4407 16.9431C28.4407 17.396 28.0675 17.493 28.061 17.8294C28.061 17.9588 28.1264 18.1464 28.2312 18.25C28.3883 18.3987 28.6109 18.457 28.8925 18.3599C28.9972 18.2823 29.0823 18.2435 29.1871 18.1723C29.4228 18.0171 29.7763 17.9847 29.9793 18.1723C30.2542 18.4182 30.1953 18.6963 30.084 18.9422C29.9465 19.2333 29.7436 19.5244 30.0513 19.8867C30.1429 19.9902 30.3132 20.0096 30.3786 20.0225C30.6405 20.0872 30.8566 19.9126 31.0464 19.7896C31.1905 19.7055 31.3476 19.6538 31.5309 19.6797C31.6619 19.6991 31.7863 19.7702 31.8714 19.8802C32.0481 20.1261 32.0154 20.3137 31.9434 20.4754C31.8321 20.7212 31.5637 20.9153 31.5702 21.2582C31.5768 21.5881 31.8386 21.7304 31.9238 21.9504C31.9958 22.1251 32.0089 22.4033 31.7404 22.6491C31.5964 22.7849 31.3476 22.8367 31.1447 22.772C31.0203 22.7332 30.9417 22.6362 30.8304 22.552C30.5096 22.3256 30.1168 22.345 29.94 22.6232C29.7763 22.8885 29.8156 22.992 29.8418 23.1278C29.8811 23.3284 30.0578 23.3413 30.1168 23.6195C30.215 24.0853 29.737 24.4152 29.3442 24.2405C29.0823 24.1241 28.8925 23.7618 29.0561 23.4966C29.1543 23.3413 29.2525 23.2831 29.2656 23.0696C29.2984 22.6814 28.9252 22.3968 28.5716 22.455C28.4014 22.4809 28.2639 22.5973 28.1788 22.7332C28.0675 22.9208 28.0872 23.1343 28.1788 23.296C28.3425 23.5613 28.4603 23.7942 28.1788 24.1112C28.061 24.247 27.8646 24.2664 27.7467 24.2664C27.5503 24.2664 27.236 24.0465 27.236 23.723C27.236 23.5095 27.3539 23.4642 27.5045 23.2119C27.6551 22.9531 27.4128 22.5909 27.1706 22.5132C27.0331 22.4679 26.817 22.4744 26.6926 22.5585C26.4242 22.7267 26.2998 23.0567 26.47 23.3154C26.5551 23.4448 26.7188 23.5677 26.7385 23.7165C26.7385 23.723 26.7385 23.7295 26.7385 23.7359C26.7516 23.7877 26.7581 23.8394 26.7581 23.8912C26.7581 24.2341 26.4831 24.5123 26.1296 24.5123C26.0183 24.5123 25.9528 24.4928 25.8546 24.4411C25.7368 24.3829 25.6255 24.2276 25.4356 24.1758C24.9315 24.0335 24.5779 24.5187 24.7547 24.9263C24.866 25.1786 25.1606 25.3274 25.4552 25.2174C25.6713 25.1462 25.7106 24.9716 26.0248 24.9716C26.1165 24.9716 26.2016 24.9975 26.2802 25.0298C26.2998 25.0298 26.3129 25.0363 26.3325 25.0492C26.3325 25.0492 26.3325 25.0492 26.3325 25.0557C26.5028 25.1592 26.6206 25.3468 26.6206 25.5668C26.6206 25.8967 26.3522 26.1619 26.0183 26.1619C25.9135 26.1619 25.8088 26.1425 25.7302 26.0843C25.5665 25.9808 25.5142 25.7932 25.1213 25.8773C24.9642 25.9096 24.866 26.0261 24.794 26.1684C24.5976 26.576 25.0493 27.0159 25.4487 26.8412C25.5273 26.8024 25.5665 26.783 25.6058 26.7442C25.6058 26.7377 25.6189 26.7312 25.6255 26.7248C25.6386 26.7118 25.6516 26.6989 25.6647 26.6795C25.6647 26.6795 25.6844 26.6665 25.6909 26.6536C25.8022 26.5695 25.9463 26.5177 26.0968 26.5177C26.4635 26.5177 26.7647 26.8153 26.7647 27.1776C26.7647 27.3393 26.6992 27.4881 26.601 27.6046C26.5355 27.7016 26.4438 27.7922 26.3849 27.9022C26.3064 28.0445 26.2409 28.3162 26.398 28.5556C26.529 28.7432 26.6992 28.8208 26.9087 28.8208C27.3408 28.8208 27.3342 28.4779 27.7009 28.4779C28.0086 28.4779 28.2508 28.7173 28.2508 29.0214C28.2508 29.3254 28.0021 29.5648 27.7009 29.5648C27.5241 29.5648 27.367 29.4807 27.2622 29.3513C27.1968 29.2995 27.1313 29.2543 27.0527 29.2413C26.8301 29.196 26.5028 29.2931 26.398 29.4807C26.326 29.6036 26.2671 29.7589 26.3064 29.953C26.3325 30.0953 26.4111 30.1858 26.4831 30.2635C26.5355 30.3088 26.5813 30.367 26.6206 30.4252C26.6337 30.4446 26.6468 30.464 26.6533 30.4899C26.6861 30.5675 26.7057 30.6516 26.7057 30.7422C26.7057 31.0916 26.4177 31.3697 26.0641 31.3697C25.8742 31.3697 25.7106 31.2921 25.5927 31.1627C25.5011 31.0916 25.4225 31.0204 25.2981 30.988C25.0035 30.9039 24.7809 31.098 24.5648 31.2339C24.4601 31.318 24.3291 31.3697 24.1786 31.3697C23.8447 31.3697 23.5697 31.1045 23.5697 30.7681C23.5697 30.6322 23.6155 30.5093 23.6875 30.4123C23.8185 30.1988 23.9756 29.9853 23.8905 29.733C23.8577 29.6554 23.825 29.5648 23.7399 29.4807C23.6679 29.4031 23.4715 29.3254 23.3536 29.3384C23.0197 29.3707 22.7906 29.5777 22.7906 29.8818C22.7906 30.0176 22.8233 30.1535 22.8953 30.2376C23.0197 30.3411 23.0983 30.4899 23.0983 30.6581C23.0983 30.9622 22.8495 31.208 22.5418 31.208C22.2341 31.208 21.9853 30.9622 21.9853 30.6581C21.9853 30.4381 22.1097 30.3282 22.1882 30.2053C22.2733 30.0823 22.2995 29.8236 22.1751 29.623C22.018 29.3642 21.6514 29.2284 21.2913 29.4613C21.0883 29.5971 21.1407 29.8688 20.761 29.8688C20.3812 29.8688 20.4925 29.513 20.0866 29.3707C19.8313 29.2866 19.5236 29.3901 19.3992 29.6424C19.1373 30.1923 19.7658 30.3929 19.6807 30.8198C19.6349 31.0527 19.3664 31.2145 19.2355 31.4215C19.1962 31.4797 19.1766 31.5509 19.1831 31.622C19.2093 31.9649 19.6349 32.0814 19.6021 32.5148C19.589 32.6959 19.4581 32.8512 19.3403 32.9871H46.491V-0.0129395L46.5565 -8.13297e-07ZM20.7544 1.78553C20.5384 1.78553 20.3616 1.61086 20.3616 1.39737C20.3616 1.18388 20.5384 1.00921 20.7544 1.00921C20.9705 1.00921 21.1473 1.18388 21.1473 1.39737C21.1473 1.61086 20.9705 1.78553 20.7544 1.78553ZM22.6138 1.78553C22.4305 1.78553 22.2864 1.64321 22.2864 1.46207C22.2864 1.28092 22.437 1.1386 22.6138 1.1386C22.7906 1.1386 22.9412 1.28092 22.9412 1.46207C22.9412 1.64321 22.7971 1.78553 22.6138 1.78553ZM24.3815 2.00549C24.0869 2.00549 23.8512 1.77259 23.8512 1.48147C23.8512 1.19035 24.0869 0.957459 24.3815 0.957459C24.6761 0.957459 24.9053 1.19035 24.9053 1.48147C24.9053 1.77259 24.6696 2.00549 24.3815 2.00549ZM26.051 2.0443C25.7368 2.0443 25.4814 1.792 25.4814 1.48147C25.4814 1.17095 25.7368 0.918643 26.051 0.918643C26.3653 0.918643 26.6206 1.17095 26.6206 1.48147C26.6206 1.792 26.3653 2.0443 26.051 2.0443ZM27.7925 1.792C27.6092 1.792 27.4652 1.64968 27.4652 1.46853C27.4652 1.28739 27.6092 1.14507 27.7925 1.14507C27.9759 1.14507 28.1199 1.28739 28.1199 1.46853C28.1199 1.64968 27.9693 1.792 27.7925 1.792ZM27.7925 8.67536C27.6027 8.67536 27.4455 8.52009 27.4455 8.33248C27.4455 8.14487 27.6027 7.99608 27.7925 7.99608C27.9824 7.99608 28.133 8.14487 28.133 8.33248C28.133 8.52009 27.9628 8.66889 27.7925 8.67536ZM27.7729 6.93511C27.5503 6.93511 27.3735 6.75397 27.3735 6.53401C27.3735 6.31406 27.5503 6.13938 27.7729 6.13938C27.9955 6.13938 28.1723 6.32053 28.1723 6.53401C28.1723 6.7475 27.9693 6.92864 27.7729 6.93511ZM29.5603 2.91766C29.6716 2.91766 29.7567 3.00176 29.7567 3.11174C29.7567 3.22172 29.6716 3.30582 29.5603 3.30582C29.449 3.30582 29.3638 3.21525 29.3638 3.11174C29.3638 3.00823 29.449 2.91766 29.5603 2.91766ZM29.5603 4.63203C29.6716 4.63203 29.7567 4.71613 29.7567 4.82611C29.7567 4.93609 29.6716 5.02019 29.5603 5.02019C29.449 5.02019 29.3638 4.93609 29.3638 4.82611C29.3638 4.71613 29.449 4.63203 29.5603 4.63203ZM29.6126 8.64301C29.4424 8.64301 29.3049 8.50716 29.3049 8.33895C29.3049 8.17075 29.4424 8.0349 29.6126 8.0349C29.7829 8.0349 29.9203 8.17075 29.9203 8.33895C29.9203 8.50716 29.7698 8.64301 29.6126 8.64301ZM31.328 8.59773C31.1839 8.59773 31.0661 8.48128 31.0661 8.33895C31.0661 8.19663 31.1839 8.08018 31.328 8.08018C31.472 8.08018 31.5964 8.19663 31.5964 8.33895C31.5964 8.48128 31.4655 8.59773 31.328 8.59773ZM29.4948 17.4025C29.246 17.4025 29.043 17.2019 29.043 16.9561C29.043 16.7103 29.246 16.5097 29.4948 16.5097C29.7436 16.5097 29.94 16.7103 29.94 16.9561C29.94 17.2019 29.7174 17.396 29.4948 17.4025ZM31.2952 14.6983C31.5244 14.6983 31.7077 14.8794 31.7077 15.1059C31.7077 15.3323 31.5047 15.507 31.2952 15.5134C31.0661 15.5134 30.8828 15.3323 30.8828 15.1059C30.8828 14.8794 31.0661 14.6983 31.2952 14.6983ZM31.5178 16.9755C31.5178 17.0855 31.4131 17.176 31.3149 17.1825C31.2036 17.1825 31.1054 17.0919 31.1054 16.9755C31.1054 16.859 31.197 16.7685 31.3149 16.7685C31.4327 16.7685 31.5178 16.859 31.5178 16.9755ZM31.2887 19.2721C31.0072 19.2721 30.778 19.0457 30.778 18.7675C30.778 18.4893 31.0072 18.2629 31.2887 18.2629C31.5702 18.2629 31.8059 18.4893 31.8059 18.7675C31.8059 19.0457 31.5506 19.2721 31.2887 19.2721ZM27.7729 25.2109C27.9497 25.2109 28.0937 25.3533 28.0937 25.5279C28.0937 25.7026 27.9497 25.8449 27.7729 25.8449C27.5961 25.8449 27.4521 25.7026 27.4521 25.5279C27.4521 25.3533 27.5961 25.2109 27.7729 25.2109ZM27.7467 27.7922C27.4979 27.7922 27.3015 27.5981 27.3015 27.3523C27.3015 27.1064 27.5045 26.9124 27.7467 26.9124C27.989 26.9124 28.1919 27.1064 28.1919 27.3523C28.1919 27.5981 27.989 27.7922 27.7467 27.7922ZM20.7872 32.78C20.5907 32.78 20.4271 32.6248 20.4271 32.4242C20.4271 32.2237 20.5907 32.0749 20.7872 32.0749C20.9836 32.0749 21.1407 32.2366 21.1407 32.4242C21.1407 32.6118 20.9836 32.78 20.7872 32.78ZM20.8068 31.2145C20.5056 31.2145 20.2634 30.9751 20.2634 30.6775C20.2634 30.3799 20.5056 30.147 20.8068 30.147C21.108 30.147 21.3502 30.3864 21.3502 30.6775C21.3502 30.9686 21.108 31.2145 20.8068 31.2145ZM22.6203 32.6636C22.4829 32.6636 22.3716 32.5536 22.3716 32.4178C22.3716 32.2819 22.4829 32.1719 22.6203 32.1719C22.7578 32.1719 22.8691 32.2819 22.8691 32.4178C22.8691 32.5536 22.7578 32.6636 22.6203 32.6636ZM24.3946 32.8059C24.1589 32.8059 23.969 32.6183 23.969 32.3854C23.969 32.1525 24.1589 31.9649 24.3946 31.9649C24.6303 31.9649 24.8136 32.1525 24.8136 32.3854C24.8136 32.6183 24.6238 32.8059 24.3946 32.8059ZM26.0772 32.8059C25.8415 32.8059 25.6516 32.6183 25.6516 32.3854C25.6516 32.1525 25.8415 31.9649 26.0772 31.9649C26.3129 31.9649 26.5028 32.1525 26.5028 32.3854C26.5028 32.6183 26.3129 32.8059 26.0772 32.8059ZM27.8122 32.683C27.6616 32.683 27.5372 32.5666 27.5372 32.4178C27.5372 32.269 27.6616 32.146 27.8122 32.146C27.9628 32.146 28.0806 32.269 28.0806 32.4178C28.0806 32.5666 27.9562 32.683 27.8122 32.683ZM27.7336 31.1757C27.4586 31.1757 27.236 30.9557 27.236 30.684C27.236 30.4123 27.4586 30.1923 27.7336 30.1923C28.0086 30.1923 28.2312 30.4123 28.2312 30.684C28.2312 30.9557 28.0086 31.1757 27.7336 31.1757ZM29.5603 30.9428C29.449 30.9428 29.3573 30.8522 29.3573 30.7422C29.3573 30.6322 29.449 30.5417 29.5603 30.5417C29.6716 30.5417 29.7632 30.6322 29.7632 30.7422C29.7632 30.8522 29.6716 30.9428 29.5603 30.9428ZM29.5406 29.2543C29.4162 29.2543 29.318 29.1572 29.318 29.0343C29.318 28.9114 29.4162 28.8144 29.5406 28.8144C29.665 28.8144 29.7632 28.9114 29.7632 29.0343C29.7632 29.1572 29.665 29.2543 29.5406 29.2543ZM29.6126 25.7285C29.4882 25.7285 29.39 25.6314 29.39 25.5085C29.39 25.3856 29.4882 25.2886 29.6126 25.2886C29.737 25.2886 29.8287 25.3856 29.8287 25.5085C29.8287 25.6314 29.7305 25.7285 29.6126 25.7285ZM31.3738 25.6832C31.2756 25.6832 31.197 25.6056 31.197 25.515C31.197 25.4244 31.2756 25.3403 31.3738 25.3403C31.472 25.3403 31.544 25.418 31.544 25.515C31.544 25.612 31.4655 25.6832 31.3738 25.6832ZM31.3018 24.2535C31.0137 24.2535 30.7846 24.0271 30.7846 23.7424C30.7846 23.4578 31.0137 23.2313 31.3018 23.2313C31.5899 23.2313 31.819 23.4578 31.819 23.7424C31.819 24.0271 31.5899 24.2535 31.3018 24.2535ZM33.004 9.72986C33.1873 9.72986 33.3314 9.87218 33.3314 10.0533C33.3314 10.2345 33.1677 10.3768 33.004 10.3768C32.8207 10.3768 32.6767 10.228 32.6767 10.0533C32.6767 9.87865 32.8207 9.72986 33.004 9.72986ZM33.004 11.3019C33.2594 11.3019 33.4689 11.5089 33.4689 11.7612C33.4689 12.0135 33.2332 12.2205 33.004 12.2205C32.7487 12.2205 32.5392 12.0135 32.5392 11.7612C32.5392 11.5089 32.7487 11.3019 33.004 11.3019ZM33.0237 18.4505C33.1612 18.4505 33.2725 18.5605 33.2725 18.6899C33.2725 18.8193 33.1546 18.9292 33.0237 18.9357C32.8862 18.9357 32.7814 18.8257 32.7814 18.6899C32.7814 18.554 32.8927 18.4505 33.0237 18.4505ZM32.8862 15.1835C32.8862 15.0865 32.9647 15.0024 33.0695 15.0024C33.1677 15.0024 33.2528 15.0865 33.2528 15.1835C33.2528 15.2805 33.1612 15.3646 33.0695 15.3646C32.9647 15.3646 32.8862 15.287 32.8862 15.1835ZM33.0171 13.8055C32.7945 13.8055 32.6177 13.6309 32.6177 13.4109C32.6177 13.1909 32.7945 13.0098 33.0171 13.0098C33.2397 13.0098 33.4165 13.1845 33.4165 13.4109C33.4165 13.6373 33.2201 13.8055 33.0171 13.8055ZM32.9975 19.9773C33.2332 19.9773 33.423 20.1649 33.423 20.3978C33.423 20.6307 33.2332 20.8183 32.9975 20.8183C32.7618 20.8183 32.5654 20.6307 32.5654 20.3978C32.5654 20.1649 32.7552 19.9773 32.9975 19.9773ZM33.0499 24.0659C32.8927 24.0659 32.7683 23.943 32.7683 23.7877C32.7683 23.6324 32.8927 23.5095 33.0499 23.5095C33.207 23.5095 33.3314 23.6324 33.3314 23.7877C33.3314 23.943 33.207 24.0659 33.0499 24.0659ZM33.0171 22.5391C32.7683 22.5391 32.5654 22.3386 32.5654 22.0927C32.5654 21.8469 32.7683 21.6463 33.0171 21.6463C33.2659 21.6463 33.4689 21.8469 33.4689 22.0927C33.4689 22.3386 33.2659 22.5391 33.0171 22.5391Z" fill="url(#paint26_linear_137_47594)"/>
<path d="M25.2719 28.5102C25.4749 28.5102 25.6385 28.3485 25.6385 28.1544C25.6385 27.9603 25.4749 27.7986 25.2719 27.7986C25.0689 27.7986 24.9053 27.9603 24.9053 28.1544C24.9053 28.3485 25.0689 28.5102 25.2719 28.5102Z" fill="url(#paint27_linear_137_47594)"/>
<path d="M25.226 30.3928C25.4748 30.3928 25.6712 30.1987 25.6712 29.9529C25.6712 29.707 25.4748 29.5129 25.226 29.5129C24.9772 29.5129 24.7808 29.707 24.7808 29.9529C24.7808 30.1987 24.9772 30.3928 25.226 30.3928Z" fill="url(#paint28_linear_137_47594)"/>
<path d="M21.671 28.5556C21.8609 28.5556 22.0115 28.4068 22.0115 28.2192C22.0115 28.0316 21.8543 27.8828 21.671 27.8828C21.4877 27.8828 21.3306 28.0316 21.3306 28.2192C21.3306 28.4068 21.4811 28.5556 21.671 28.5556Z" fill="url(#paint29_linear_137_47594)"/>
<path d="M26.9674 21.0383C26.8364 21.0383 26.7317 21.1418 26.7317 21.2712C26.7317 21.4006 26.8364 21.5041 26.9674 21.5041C27.0983 21.5041 27.2031 21.4006 27.2031 21.2712C27.2031 21.1418 27.0983 21.0383 26.9674 21.0383Z" fill="url(#paint30_linear_137_47594)"/>
<path d="M26.9674 19.2722C26.8364 19.2722 26.7317 19.3757 26.7317 19.5051C26.7317 19.6345 26.8364 19.738 26.9674 19.738C27.0983 19.738 27.2031 19.6345 27.2031 19.5051C27.2031 19.3757 27.0983 19.2722 26.9674 19.2722Z" fill="url(#paint31_linear_137_47594)"/>
<path d="M27.046 17.3442C26.8103 17.3442 26.627 17.5318 26.627 17.7583C26.627 17.9847 26.8168 18.1723 27.046 18.1723C27.2751 18.1723 27.465 17.9847 27.465 17.7583C27.465 17.5318 27.2751 17.3442 27.046 17.3442Z" fill="url(#paint32_linear_137_47594)"/>
<path d="M27.0657 15.6169C26.8169 15.6169 26.6074 15.8175 26.6074 16.0633C26.6074 16.3092 26.8104 16.5162 27.0657 16.5162C27.2949 16.5162 27.5175 16.3156 27.5175 16.0633C27.5175 15.811 27.3211 15.6169 27.0657 15.6169Z" fill="url(#paint33_linear_137_47594)"/>
<path d="M28.7615 14.9506C29.0299 14.9506 29.2918 14.7177 29.2918 14.4266C29.2918 14.1355 29.0496 13.9026 28.7615 13.9026C28.4734 13.9026 28.2312 14.1355 28.2312 14.4266C28.2312 14.7177 28.4669 14.9571 28.7615 14.9506Z" fill="url(#paint34_linear_137_47594)"/>
<path d="M30.4898 13.1004C30.7189 13.1004 30.9415 12.8999 30.9415 12.6476C30.9415 12.3953 30.7386 12.2012 30.4898 12.2012C30.241 12.2012 30.0315 12.4017 30.0315 12.6476C30.0315 12.8934 30.2345 13.1004 30.4898 13.1004Z" fill="url(#paint35_linear_137_47594)"/>
<path d="M28.7549 12.874C28.8924 12.874 29.0299 12.7511 29.0299 12.6023C29.0299 12.4535 28.9055 12.3306 28.7549 12.3306C28.6043 12.3306 28.4734 12.4535 28.4734 12.6023C28.4734 12.7511 28.5978 12.8805 28.7549 12.874Z" fill="url(#paint36_linear_137_47594)"/>
<path d="M28.7678 19.8544C29.0035 19.8544 29.1934 19.6668 29.1934 19.4339C29.1934 19.201 29.0035 19.0134 28.7678 19.0134C28.5321 19.0134 28.3423 19.201 28.3423 19.4339C28.3423 19.6668 28.5321 19.8544 28.7678 19.8544Z" fill="url(#paint37_linear_137_47594)"/>
<path d="M10.5866 16.3674C10.5866 13.0098 13.3364 10.2927 16.7343 10.2927V0H15.7326C15.2939 0 14.96 0.329935 14.9077 0.731033L14.5083 3.10527C14.4035 3.55166 13.8143 3.71986 13.8143 3.71986H13.8209C13.4411 3.79749 13.0745 3.89453 12.7078 4.01098C12.6227 4.02392 12.099 4.12096 11.8174 3.8169L10.2658 1.9602C10.017 1.63674 9.5587 1.51382 9.17897 1.72731L7.51601 2.6783C7.13628 2.89826 7.01188 3.34464 7.17556 3.71986L8.02668 5.97118C8.16417 6.40463 7.73206 6.84454 7.73206 6.84454H7.73861C7.45709 7.09037 7.18866 7.35562 6.93332 7.64027C6.93332 7.64027 6.48812 8.04783 6.04946 7.91845L3.77108 7.07744C3.39135 6.92217 2.93305 7.03862 2.71045 7.41384L1.74803 9.06352C1.53197 9.43874 1.64982 9.89159 1.98372 10.1374L3.86274 11.6707C4.17045 11.9553 4.07224 12.4728 4.05915 12.5505C3.94785 12.9063 3.84309 13.275 3.76453 13.6503C3.76453 13.6503 3.59431 14.226 3.14256 14.3295L0.739776 14.7242C0.32731 14.7759 -0.0065918 15.1059 -0.0065918 15.5393V17.4413C-0.0065918 17.8747 0.32731 18.2047 0.739776 18.2564L3.14256 18.651C3.58776 18.7546 3.76453 19.3368 3.76453 19.3368C3.84309 19.6991 3.94785 20.0678 4.05915 20.4301C4.07879 20.5077 4.17045 21.0253 3.86274 21.3099L1.98372 22.8367C1.65637 23.089 1.53197 23.5354 1.74803 23.9171L2.71045 25.5668C2.93305 25.942 3.3848 26.0584 3.77108 25.9032L6.04946 25.0621C6.48812 24.9263 6.93332 25.3468 6.93332 25.3468C7.18866 25.6185 7.46363 25.8838 7.73861 26.1361H7.73206C7.73206 26.1361 8.15762 26.5695 8.02014 27.0029L7.16901 29.2543C7.01188 29.6295 7.12973 30.0823 7.50946 30.3023L9.17242 31.2533C9.55215 31.4732 10.0104 31.3439 10.2592 31.0269L11.8109 29.1702C12.1055 28.8596 12.6424 28.9631 12.7078 28.9761C13.0679 29.0861 13.4411 29.1831 13.8143 29.2672H13.8012C13.8012 29.2672 14.3904 29.4419 14.4952 29.8818L14.8946 32.256C14.947 32.6571 15.2809 32.9871 15.7195 32.9871H16.7212V22.4356C13.3233 22.4356 10.5735 19.7185 10.5735 16.3609L10.5866 16.3674Z" fill="url(#paint38_linear_137_47594)"/>
</g>
<defs>
<linearGradient id="paint0_linear_137_47594" x1="57.6397" y1="15.3597" x2="19.3248" y2="15.3597" gradientUnits="userSpaceOnUse">
<stop stop-color="white"/>
<stop offset="0.02" stop-color="#EFF9FD"/>
<stop offset="0.1" stop-color="#B1E4F4"/>
<stop offset="0.19" stop-color="#7BD2ED"/>
<stop offset="0.27" stop-color="#4EC2E8"/>
<stop offset="0.35" stop-color="#2CB7E3"/>
<stop offset="0.42" stop-color="#14AEE0"/>
<stop offset="0.49" stop-color="#05A9DE"/>
<stop offset="0.54" stop-color="#00A8DE"/>
<stop offset="0.62" stop-color="#059BD5"/>
<stop offset="0.76" stop-color="#1479BE"/>
<stop offset="0.95" stop-color="#2C439A"/>
<stop offset="1" stop-color="#34328F"/>
</linearGradient>
<linearGradient id="paint1_linear_137_47594" x1="57.5921" y1="41.4949" x2="19.3506" y2="41.4905" gradientUnits="userSpaceOnUse">
<stop stop-color="white"/>
<stop offset="0.02" stop-color="#EFF9FD"/>
<stop offset="0.1" stop-color="#B1E4F4"/>
<stop offset="0.19" stop-color="#7BD2ED"/>
<stop offset="0.27" stop-color="#4EC2E8"/>
<stop offset="0.35" stop-color="#2CB7E3"/>
<stop offset="0.42" stop-color="#14AEE0"/>
<stop offset="0.49" stop-color="#05A9DE"/>
<stop offset="0.54" stop-color="#00A8DE"/>
<stop offset="0.62" stop-color="#059BD5"/>
<stop offset="0.76" stop-color="#1479BE"/>
<stop offset="0.95" stop-color="#2C439A"/>
<stop offset="1" stop-color="#34328F"/>
</linearGradient>
<linearGradient id="paint2_linear_137_47594" x1="57.657" y1="15.3256" x2="19.329" y2="15.3213" gradientUnits="userSpaceOnUse">
<stop stop-color="white"/>
<stop offset="0.02" stop-color="#EFF9FD"/>
<stop offset="0.1" stop-color="#B1E4F4"/>
<stop offset="0.19" stop-color="#7BD2ED"/>
<stop offset="0.27" stop-color="#4EC2E8"/>
<stop offset="0.35" stop-color="#2CB7E3"/>
<stop offset="0.42" stop-color="#14AEE0"/>
<stop offset="0.49" stop-color="#05A9DE"/>
<stop offset="0.54" stop-color="#00A8DE"/>
<stop offset="0.62" stop-color="#059BD5"/>
<stop offset="0.76" stop-color="#1479BE"/>
<stop offset="0.95" stop-color="#2C439A"/>
<stop offset="1" stop-color="#34328F"/>
</linearGradient>
<linearGradient id="paint3_linear_137_47594" x1="57.6051" y1="20.573" x2="19.3549" y2="20.573" gradientUnits="userSpaceOnUse">
<stop stop-color="white"/>
<stop offset="0.02" stop-color="#EFF9FD"/>
<stop offset="0.1" stop-color="#B1E4F4"/>
<stop offset="0.19" stop-color="#7BD2ED"/>
<stop offset="0.27" stop-color="#4EC2E8"/>
<stop offset="0.35" stop-color="#2CB7E3"/>
<stop offset="0.42" stop-color="#14AEE0"/>
<stop offset="0.49" stop-color="#05A9DE"/>
<stop offset="0.54" stop-color="#00A8DE"/>
<stop offset="0.62" stop-color="#059BD5"/>
<stop offset="0.76" stop-color="#1479BE"/>
<stop offset="0.95" stop-color="#2C439A"/>
<stop offset="1" stop-color="#34328F"/>
</linearGradient>
<linearGradient id="paint4_linear_137_47594" x1="57.6268" y1="22.2937" x2="19.3376" y2="22.2937" gradientUnits="userSpaceOnUse">
<stop stop-color="white"/>
<stop offset="0.02" stop-color="#EFF9FD"/>
<stop offset="0.1" stop-color="#B1E4F4"/>
<stop offset="0.19" stop-color="#7BD2ED"/>
<stop offset="0.27" stop-color="#4EC2E8"/>
<stop offset="0.35" stop-color="#2CB7E3"/>
<stop offset="0.42" stop-color="#14AEE0"/>
<stop offset="0.49" stop-color="#05A9DE"/>
<stop offset="0.54" stop-color="#00A8DE"/>
<stop offset="0.62" stop-color="#059BD5"/>
<stop offset="0.76" stop-color="#1479BE"/>
<stop offset="0.95" stop-color="#2C439A"/>
<stop offset="1" stop-color="#34328F"/>
</linearGradient>
<linearGradient id="paint5_linear_137_47594" x1="57.6223" y1="34.5223" x2="19.3419" y2="34.5223" gradientUnits="userSpaceOnUse">
<stop stop-color="white"/>
<stop offset="0.02" stop-color="#EFF9FD"/>
<stop offset="0.1" stop-color="#B1E4F4"/>
<stop offset="0.19" stop-color="#7BD2ED"/>
<stop offset="0.27" stop-color="#4EC2E8"/>
<stop offset="0.35" stop-color="#2CB7E3"/>
<stop offset="0.42" stop-color="#14AEE0"/>
<stop offset="0.49" stop-color="#05A9DE"/>
<stop offset="0.54" stop-color="#00A8DE"/>
<stop offset="0.62" stop-color="#059BD5"/>
<stop offset="0.76" stop-color="#1479BE"/>
<stop offset="0.95" stop-color="#2C439A"/>
<stop offset="1" stop-color="#34328F"/>
</linearGradient>
<linearGradient id="paint6_linear_137_47594" x1="57.6139" y1="22.2596" x2="19.3507" y2="22.2596" gradientUnits="userSpaceOnUse">
<stop stop-color="white"/>
<stop offset="0.02" stop-color="#EFF9FD"/>
<stop offset="0.1" stop-color="#B1E4F4"/>
<stop offset="0.19" stop-color="#7BD2ED"/>
<stop offset="0.27" stop-color="#4EC2E8"/>
<stop offset="0.35" stop-color="#2CB7E3"/>
<stop offset="0.42" stop-color="#14AEE0"/>
<stop offset="0.49" stop-color="#05A9DE"/>
<stop offset="0.54" stop-color="#00A8DE"/>
<stop offset="0.62" stop-color="#059BD5"/>
<stop offset="0.76" stop-color="#1479BE"/>
<stop offset="0.95" stop-color="#2C439A"/>
<stop offset="1" stop-color="#34328F"/>
</linearGradient>
<linearGradient id="paint7_linear_137_47594" x1="57.6353" y1="39.7699" x2="19.3333" y2="39.7699" gradientUnits="userSpaceOnUse">
<stop stop-color="white"/>
<stop offset="0.02" stop-color="#EFF9FD"/>
<stop offset="0.1" stop-color="#B1E4F4"/>
<stop offset="0.19" stop-color="#7BD2ED"/>
<stop offset="0.27" stop-color="#4EC2E8"/>
<stop offset="0.35" stop-color="#2CB7E3"/>
<stop offset="0.42" stop-color="#14AEE0"/>
<stop offset="0.49" stop-color="#05A9DE"/>
<stop offset="0.54" stop-color="#00A8DE"/>
<stop offset="0.62" stop-color="#059BD5"/>
<stop offset="0.76" stop-color="#1479BE"/>
<stop offset="0.95" stop-color="#2C439A"/>
<stop offset="1" stop-color="#34328F"/>
</linearGradient>
<linearGradient id="paint8_linear_137_47594" x1="57.6094" y1="17.0848" x2="19.3464" y2="17.0848" gradientUnits="userSpaceOnUse">
<stop stop-color="white"/>
<stop offset="0.02" stop-color="#EFF9FD"/>
<stop offset="0.1" stop-color="#B1E4F4"/>
<stop offset="0.19" stop-color="#7BD2ED"/>
<stop offset="0.27" stop-color="#4EC2E8"/>
<stop offset="0.35" stop-color="#2CB7E3"/>
<stop offset="0.42" stop-color="#14AEE0"/>
<stop offset="0.49" stop-color="#05A9DE"/>
<stop offset="0.54" stop-color="#00A8DE"/>
<stop offset="0.62" stop-color="#059BD5"/>
<stop offset="0.76" stop-color="#1479BE"/>
<stop offset="0.95" stop-color="#2C439A"/>
<stop offset="1" stop-color="#34328F"/>
</linearGradient>
<linearGradient id="paint9_linear_137_47594" x1="57.6224" y1="17.1871" x2="19.342" y2="17.1828" gradientUnits="userSpaceOnUse">
<stop stop-color="white"/>
<stop offset="0.02" stop-color="#EFF9FD"/>
<stop offset="0.1" stop-color="#B1E4F4"/>
<stop offset="0.19" stop-color="#7BD2ED"/>
<stop offset="0.27" stop-color="#4EC2E8"/>
<stop offset="0.35" stop-color="#2CB7E3"/>
<stop offset="0.42" stop-color="#14AEE0"/>
<stop offset="0.49" stop-color="#05A9DE"/>
<stop offset="0.54" stop-color="#00A8DE"/>
<stop offset="0.62" stop-color="#059BD5"/>
<stop offset="0.76" stop-color="#1479BE"/>
<stop offset="0.95" stop-color="#2C439A"/>
<stop offset="1" stop-color="#34328F"/>
</linearGradient>
<linearGradient id="paint10_linear_137_47594" x1="57.7302" y1="17.0848" x2="19.2685" y2="17.0848" gradientUnits="userSpaceOnUse">
<stop stop-color="white"/>
<stop offset="0.02" stop-color="#EFF9FD"/>
<stop offset="0.1" stop-color="#B1E4F4"/>
<stop offset="0.19" stop-color="#7BD2ED"/>
<stop offset="0.27" stop-color="#4EC2E8"/>
<stop offset="0.35" stop-color="#2CB7E3"/>
<stop offset="0.42" stop-color="#14AEE0"/>
<stop offset="0.49" stop-color="#05A9DE"/>
<stop offset="0.54" stop-color="#00A8DE"/>
<stop offset="0.62" stop-color="#059BD5"/>
<stop offset="0.76" stop-color="#1479BE"/>
<stop offset="0.95" stop-color="#2C439A"/>
<stop offset="1" stop-color="#34328F"/>
</linearGradient>
<linearGradient id="paint11_linear_137_47594" x1="57.6267" y1="11.931" x2="19.3377" y2="11.931" gradientUnits="userSpaceOnUse">
<stop stop-color="white"/>
<stop offset="0.02" stop-color="#EFF9FD"/>
<stop offset="0.1" stop-color="#B1E4F4"/>
<stop offset="0.19" stop-color="#7BD2ED"/>
<stop offset="0.27" stop-color="#4EC2E8"/>
<stop offset="0.35" stop-color="#2CB7E3"/>
<stop offset="0.42" stop-color="#14AEE0"/>
<stop offset="0.49" stop-color="#05A9DE"/>
<stop offset="0.54" stop-color="#00A8DE"/>
<stop offset="0.62" stop-color="#059BD5"/>
<stop offset="0.76" stop-color="#1479BE"/>
<stop offset="0.95" stop-color="#2C439A"/>
<stop offset="1" stop-color="#34328F"/>
</linearGradient>
<linearGradient id="paint12_linear_137_47594" x1="57.7217" y1="39.7443" x2="19.3074" y2="39.7443" gradientUnits="userSpaceOnUse">
<stop stop-color="white"/>
<stop offset="0.02" stop-color="#EFF9FD"/>
<stop offset="0.1" stop-color="#B1E4F4"/>
<stop offset="0.19" stop-color="#7BD2ED"/>
<stop offset="0.27" stop-color="#4EC2E8"/>
<stop offset="0.35" stop-color="#2CB7E3"/>
<stop offset="0.42" stop-color="#14AEE0"/>
<stop offset="0.49" stop-color="#05A9DE"/>
<stop offset="0.54" stop-color="#00A8DE"/>
<stop offset="0.62" stop-color="#059BD5"/>
<stop offset="0.76" stop-color="#1479BE"/>
<stop offset="0.95" stop-color="#2C439A"/>
<stop offset="1" stop-color="#34328F"/>
</linearGradient>
<linearGradient id="paint13_linear_137_47594" x1="57.6311" y1="43.1857" x2="19.3377" y2="43.1857" gradientUnits="userSpaceOnUse">
<stop stop-color="white"/>
<stop offset="0.02" stop-color="#EFF9FD"/>
<stop offset="0.1" stop-color="#B1E4F4"/>
<stop offset="0.19" stop-color="#7BD2ED"/>
<stop offset="0.27" stop-color="#4EC2E8"/>
<stop offset="0.35" stop-color="#2CB7E3"/>
<stop offset="0.42" stop-color="#14AEE0"/>
<stop offset="0.49" stop-color="#05A9DE"/>
<stop offset="0.54" stop-color="#00A8DE"/>
<stop offset="0.62" stop-color="#059BD5"/>
<stop offset="0.76" stop-color="#1479BE"/>
<stop offset="0.95" stop-color="#2C439A"/>
<stop offset="1" stop-color="#34328F"/>
</linearGradient>
<linearGradient id="paint14_linear_137_47594" x1="57.6182" y1="15.364" x2="19.3421" y2="15.364" gradientUnits="userSpaceOnUse">
<stop stop-color="white"/>
<stop offset="0.02" stop-color="#EFF9FD"/>
<stop offset="0.1" stop-color="#B1E4F4"/>
<stop offset="0.19" stop-color="#7BD2ED"/>
<stop offset="0.27" stop-color="#4EC2E8"/>
<stop offset="0.35" stop-color="#2CB7E3"/>
<stop offset="0.42" stop-color="#14AEE0"/>
<stop offset="0.49" stop-color="#05A9DE"/>
<stop offset="0.54" stop-color="#00A8DE"/>
<stop offset="0.62" stop-color="#059BD5"/>
<stop offset="0.76" stop-color="#1479BE"/>
<stop offset="0.95" stop-color="#2C439A"/>
<stop offset="1" stop-color="#34328F"/>
</linearGradient>
<linearGradient id="paint15_linear_137_47594" x1="57.6009" y1="24.0701" x2="19.3637" y2="24.0701" gradientUnits="userSpaceOnUse">
<stop stop-color="white"/>
<stop offset="0.02" stop-color="#EFF9FD"/>
<stop offset="0.1" stop-color="#B1E4F4"/>
<stop offset="0.19" stop-color="#7BD2ED"/>
<stop offset="0.27" stop-color="#4EC2E8"/>
<stop offset="0.35" stop-color="#2CB7E3"/>
<stop offset="0.42" stop-color="#14AEE0"/>
<stop offset="0.49" stop-color="#05A9DE"/>
<stop offset="0.54" stop-color="#00A8DE"/>
<stop offset="0.62" stop-color="#059BD5"/>
<stop offset="0.76" stop-color="#1479BE"/>
<stop offset="0.95" stop-color="#2C439A"/>
<stop offset="1" stop-color="#34328F"/>
</linearGradient>
<linearGradient id="paint16_linear_137_47594" x1="57.644" y1="13.6391" x2="19.3333" y2="13.6391" gradientUnits="userSpaceOnUse">
<stop stop-color="white"/>
<stop offset="0.02" stop-color="#EFF9FD"/>
<stop offset="0.1" stop-color="#B1E4F4"/>
<stop offset="0.19" stop-color="#7BD2ED"/>
<stop offset="0.27" stop-color="#4EC2E8"/>
<stop offset="0.35" stop-color="#2CB7E3"/>
<stop offset="0.42" stop-color="#14AEE0"/>
<stop offset="0.49" stop-color="#05A9DE"/>
<stop offset="0.54" stop-color="#00A8DE"/>
<stop offset="0.62" stop-color="#059BD5"/>
<stop offset="0.76" stop-color="#1479BE"/>
<stop offset="0.95" stop-color="#2C439A"/>
<stop offset="1" stop-color="#34328F"/>
</linearGradient>
<linearGradient id="paint17_linear_137_47594" x1="57.6266" y1="39.7485" x2="19.3375" y2="39.7441" gradientUnits="userSpaceOnUse">
<stop stop-color="white"/>
<stop offset="0.02" stop-color="#EFF9FD"/>
<stop offset="0.1" stop-color="#B1E4F4"/>
<stop offset="0.19" stop-color="#7BD2ED"/>
<stop offset="0.27" stop-color="#4EC2E8"/>
<stop offset="0.35" stop-color="#2CB7E3"/>
<stop offset="0.42" stop-color="#14AEE0"/>
<stop offset="0.49" stop-color="#05A9DE"/>
<stop offset="0.54" stop-color="#00A8DE"/>
<stop offset="0.62" stop-color="#059BD5"/>
<stop offset="0.76" stop-color="#1479BE"/>
<stop offset="0.95" stop-color="#2C439A"/>
<stop offset="1" stop-color="#34328F"/>
</linearGradient>
<linearGradient id="paint18_linear_137_47594" x1="57.7302" y1="18.8695" x2="19.2685" y2="18.8652" gradientUnits="userSpaceOnUse">
<stop stop-color="white"/>
<stop offset="0.02" stop-color="#EFF9FD"/>
<stop offset="0.1" stop-color="#B1E4F4"/>
<stop offset="0.19" stop-color="#7BD2ED"/>
<stop offset="0.27" stop-color="#4EC2E8"/>
<stop offset="0.35" stop-color="#2CB7E3"/>
<stop offset="0.42" stop-color="#14AEE0"/>
<stop offset="0.49" stop-color="#05A9DE"/>
<stop offset="0.54" stop-color="#00A8DE"/>
<stop offset="0.62" stop-color="#059BD5"/>
<stop offset="0.76" stop-color="#1479BE"/>
<stop offset="0.95" stop-color="#2C439A"/>
<stop offset="1" stop-color="#34328F"/>
</linearGradient>
<linearGradient id="paint19_linear_137_47594" x1="57.592" y1="37.9681" x2="19.3593" y2="37.9681" gradientUnits="userSpaceOnUse">
<stop stop-color="white"/>
<stop offset="0.02" stop-color="#EFF9FD"/>
<stop offset="0.1" stop-color="#B1E4F4"/>
<stop offset="0.19" stop-color="#7BD2ED"/>
<stop offset="0.27" stop-color="#4EC2E8"/>
<stop offset="0.35" stop-color="#2CB7E3"/>
<stop offset="0.42" stop-color="#14AEE0"/>
<stop offset="0.49" stop-color="#05A9DE"/>
<stop offset="0.54" stop-color="#00A8DE"/>
<stop offset="0.62" stop-color="#059BD5"/>
<stop offset="0.76" stop-color="#1479BE"/>
<stop offset="0.95" stop-color="#2C439A"/>
<stop offset="1" stop-color="#34328F"/>
</linearGradient>
<linearGradient id="paint20_linear_137_47594" x1="57.6181" y1="25.8632" x2="19.3464" y2="25.8632" gradientUnits="userSpaceOnUse">
<stop stop-color="white"/>
<stop offset="0.02" stop-color="#EFF9FD"/>
<stop offset="0.1" stop-color="#B1E4F4"/>
<stop offset="0.19" stop-color="#7BD2ED"/>
<stop offset="0.27" stop-color="#4EC2E8"/>
<stop offset="0.35" stop-color="#2CB7E3"/>
<stop offset="0.42" stop-color="#14AEE0"/>
<stop offset="0.49" stop-color="#05A9DE"/>
<stop offset="0.54" stop-color="#00A8DE"/>
<stop offset="0.62" stop-color="#059BD5"/>
<stop offset="0.76" stop-color="#1479BE"/>
<stop offset="0.95" stop-color="#2C439A"/>
<stop offset="1" stop-color="#34328F"/>
</linearGradient>
<linearGradient id="paint21_linear_137_47594" x1="57.6182" y1="17.0848" x2="19.3421" y2="17.0848" gradientUnits="userSpaceOnUse">
<stop stop-color="white"/>
<stop offset="0.02" stop-color="#EFF9FD"/>
<stop offset="0.1" stop-color="#B1E4F4"/>
<stop offset="0.19" stop-color="#7BD2ED"/>
<stop offset="0.27" stop-color="#4EC2E8"/>
<stop offset="0.35" stop-color="#2CB7E3"/>
<stop offset="0.42" stop-color="#14AEE0"/>
<stop offset="0.49" stop-color="#05A9DE"/>
<stop offset="0.54" stop-color="#00A8DE"/>
<stop offset="0.62" stop-color="#059BD5"/>
<stop offset="0.76" stop-color="#1479BE"/>
<stop offset="0.95" stop-color="#2C439A"/>
<stop offset="1" stop-color="#34328F"/>
</linearGradient>
<linearGradient id="paint22_linear_137_47594" x1="57.6181" y1="32.7803" x2="19.3464" y2="32.7803" gradientUnits="userSpaceOnUse">
<stop stop-color="white"/>
<stop offset="0.02" stop-color="#EFF9FD"/>
<stop offset="0.1" stop-color="#B1E4F4"/>
<stop offset="0.19" stop-color="#7BD2ED"/>
<stop offset="0.27" stop-color="#4EC2E8"/>
<stop offset="0.35" stop-color="#2CB7E3"/>
<stop offset="0.42" stop-color="#14AEE0"/>
<stop offset="0.49" stop-color="#05A9DE"/>
<stop offset="0.54" stop-color="#00A8DE"/>
<stop offset="0.62" stop-color="#059BD5"/>
<stop offset="0.76" stop-color="#1479BE"/>
<stop offset="0.95" stop-color="#2C439A"/>
<stop offset="1" stop-color="#34328F"/>
</linearGradient>
<linearGradient id="paint23_linear_137_47594" x1="57.657" y1="32.7803" x2="19.3032" y2="32.7803" gradientUnits="userSpaceOnUse">
<stop stop-color="white"/>
<stop offset="0.02" stop-color="#EFF9FD"/>
<stop offset="0.1" stop-color="#B1E4F4"/>
<stop offset="0.19" stop-color="#7BD2ED"/>
<stop offset="0.27" stop-color="#4EC2E8"/>
<stop offset="0.35" stop-color="#2CB7E3"/>
<stop offset="0.42" stop-color="#14AEE0"/>
<stop offset="0.49" stop-color="#05A9DE"/>
<stop offset="0.54" stop-color="#00A8DE"/>
<stop offset="0.62" stop-color="#059BD5"/>
<stop offset="0.76" stop-color="#1479BE"/>
<stop offset="0.95" stop-color="#2C439A"/>
<stop offset="1" stop-color="#34328F"/>
</linearGradient>
<linearGradient id="paint24_linear_137_47594" x1="57.5878" y1="15.3086" x2="19.3635" y2="15.3086" gradientUnits="userSpaceOnUse">
<stop stop-color="white"/>
<stop offset="0.02" stop-color="#EFF9FD"/>
<stop offset="0.1" stop-color="#B1E4F4"/>
<stop offset="0.19" stop-color="#7BD2ED"/>
<stop offset="0.27" stop-color="#4EC2E8"/>
<stop offset="0.35" stop-color="#2CB7E3"/>
<stop offset="0.42" stop-color="#14AEE0"/>
<stop offset="0.49" stop-color="#05A9DE"/>
<stop offset="0.54" stop-color="#00A8DE"/>
<stop offset="0.62" stop-color="#059BD5"/>
<stop offset="0.76" stop-color="#1479BE"/>
<stop offset="0.95" stop-color="#2C439A"/>
<stop offset="1" stop-color="#34328F"/>
</linearGradient>
<linearGradient id="paint25_linear_137_47594" x1="57.6613" y1="36.2517" x2="19.3161" y2="36.2517" gradientUnits="userSpaceOnUse">
<stop stop-color="white"/>
<stop offset="0.02" stop-color="#EFF9FD"/>
<stop offset="0.1" stop-color="#B1E4F4"/>
<stop offset="0.19" stop-color="#7BD2ED"/>
<stop offset="0.27" stop-color="#4EC2E8"/>
<stop offset="0.35" stop-color="#2CB7E3"/>
<stop offset="0.42" stop-color="#14AEE0"/>
<stop offset="0.49" stop-color="#05A9DE"/>
<stop offset="0.54" stop-color="#00A8DE"/>
<stop offset="0.62" stop-color="#059BD5"/>
<stop offset="0.76" stop-color="#1479BE"/>
<stop offset="0.95" stop-color="#2C439A"/>
<stop offset="1" stop-color="#34328F"/>
</linearGradient>
<linearGradient id="paint26_linear_137_47594" x1="57.6225" y1="27.9939" x2="19.3421" y2="27.9939" gradientUnits="userSpaceOnUse">
<stop stop-color="white"/>
<stop offset="0.02" stop-color="#EFF9FD"/>
<stop offset="0.1" stop-color="#B1E4F4"/>
<stop offset="0.19" stop-color="#7BD2ED"/>
<stop offset="0.27" stop-color="#4EC2E8"/>
<stop offset="0.35" stop-color="#2CB7E3"/>
<stop offset="0.42" stop-color="#14AEE0"/>
<stop offset="0.49" stop-color="#05A9DE"/>
<stop offset="0.54" stop-color="#00A8DE"/>
<stop offset="0.62" stop-color="#059BD5"/>
<stop offset="0.76" stop-color="#1479BE"/>
<stop offset="0.95" stop-color="#2C439A"/>
<stop offset="1" stop-color="#34328F"/>
</linearGradient>
<linearGradient id="paint27_linear_137_47594" x1="57.6398" y1="39.71" x2="19.3291" y2="39.71" gradientUnits="userSpaceOnUse">
<stop stop-color="white"/>
<stop offset="0.02" stop-color="#EFF9FD"/>
<stop offset="0.1" stop-color="#B1E4F4"/>
<stop offset="0.19" stop-color="#7BD2ED"/>
<stop offset="0.27" stop-color="#4EC2E8"/>
<stop offset="0.35" stop-color="#2CB7E3"/>
<stop offset="0.42" stop-color="#14AEE0"/>
<stop offset="0.49" stop-color="#05A9DE"/>
<stop offset="0.54" stop-color="#00A8DE"/>
<stop offset="0.62" stop-color="#059BD5"/>
<stop offset="0.76" stop-color="#1479BE"/>
<stop offset="0.95" stop-color="#2C439A"/>
<stop offset="1" stop-color="#34328F"/>
</linearGradient>
<linearGradient id="paint28_linear_137_47594" x1="57.6397" y1="41.5204" x2="19.3247" y2="41.5204" gradientUnits="userSpaceOnUse">
<stop stop-color="white"/>
<stop offset="0.02" stop-color="#EFF9FD"/>
<stop offset="0.1" stop-color="#B1E4F4"/>
<stop offset="0.19" stop-color="#7BD2ED"/>
<stop offset="0.27" stop-color="#4EC2E8"/>
<stop offset="0.35" stop-color="#2CB7E3"/>
<stop offset="0.42" stop-color="#14AEE0"/>
<stop offset="0.49" stop-color="#05A9DE"/>
<stop offset="0.54" stop-color="#00A8DE"/>
<stop offset="0.62" stop-color="#059BD5"/>
<stop offset="0.76" stop-color="#1479BE"/>
<stop offset="0.95" stop-color="#2C439A"/>
<stop offset="1" stop-color="#34328F"/>
</linearGradient>
<linearGradient id="paint29_linear_137_47594" x1="57.6051" y1="39.7827" x2="19.3507" y2="39.7784" gradientUnits="userSpaceOnUse">
<stop stop-color="white"/>
<stop offset="0.02" stop-color="#EFF9FD"/>
<stop offset="0.1" stop-color="#B1E4F4"/>
<stop offset="0.19" stop-color="#7BD2ED"/>
<stop offset="0.27" stop-color="#4EC2E8"/>
<stop offset="0.35" stop-color="#2CB7E3"/>
<stop offset="0.42" stop-color="#14AEE0"/>
<stop offset="0.49" stop-color="#05A9DE"/>
<stop offset="0.54" stop-color="#00A8DE"/>
<stop offset="0.62" stop-color="#059BD5"/>
<stop offset="0.76" stop-color="#1479BE"/>
<stop offset="0.95" stop-color="#2C439A"/>
<stop offset="1" stop-color="#34328F"/>
</linearGradient>
<linearGradient id="paint30_linear_137_47594" x1="57.6481" y1="32.789" x2="19.316" y2="32.789" gradientUnits="userSpaceOnUse">
<stop stop-color="white"/>
<stop offset="0.02" stop-color="#EFF9FD"/>
<stop offset="0.1" stop-color="#B1E4F4"/>
<stop offset="0.19" stop-color="#7BD2ED"/>
<stop offset="0.27" stop-color="#4EC2E8"/>
<stop offset="0.35" stop-color="#2CB7E3"/>
<stop offset="0.42" stop-color="#14AEE0"/>
<stop offset="0.49" stop-color="#05A9DE"/>
<stop offset="0.54" stop-color="#00A8DE"/>
<stop offset="0.62" stop-color="#059BD5"/>
<stop offset="0.76" stop-color="#1479BE"/>
<stop offset="0.95" stop-color="#2C439A"/>
<stop offset="1" stop-color="#34328F"/>
</linearGradient>
<linearGradient id="paint31_linear_137_47594" x1="57.6481" y1="31.0127" x2="19.316" y2="31.0127" gradientUnits="userSpaceOnUse">
<stop stop-color="white"/>
<stop offset="0.02" stop-color="#EFF9FD"/>
<stop offset="0.1" stop-color="#B1E4F4"/>
<stop offset="0.19" stop-color="#7BD2ED"/>
<stop offset="0.27" stop-color="#4EC2E8"/>
<stop offset="0.35" stop-color="#2CB7E3"/>
<stop offset="0.42" stop-color="#14AEE0"/>
<stop offset="0.49" stop-color="#05A9DE"/>
<stop offset="0.54" stop-color="#00A8DE"/>
<stop offset="0.62" stop-color="#059BD5"/>
<stop offset="0.76" stop-color="#1479BE"/>
<stop offset="0.95" stop-color="#2C439A"/>
<stop offset="1" stop-color="#34328F"/>
</linearGradient>
<linearGradient id="paint32_linear_137_47594" x1="57.618" y1="29.2663" x2="19.3462" y2="29.2663" gradientUnits="userSpaceOnUse">
<stop stop-color="white"/>
<stop offset="0.02" stop-color="#EFF9FD"/>
<stop offset="0.1" stop-color="#B1E4F4"/>
<stop offset="0.19" stop-color="#7BD2ED"/>
<stop offset="0.27" stop-color="#4EC2E8"/>
<stop offset="0.35" stop-color="#2CB7E3"/>
<stop offset="0.42" stop-color="#14AEE0"/>
<stop offset="0.49" stop-color="#05A9DE"/>
<stop offset="0.54" stop-color="#00A8DE"/>
<stop offset="0.62" stop-color="#059BD5"/>
<stop offset="0.76" stop-color="#1479BE"/>
<stop offset="0.95" stop-color="#2C439A"/>
<stop offset="1" stop-color="#34328F"/>
</linearGradient>
<linearGradient id="paint33_linear_137_47594" x1="57.6224" y1="27.5584" x2="19.342" y2="27.5584" gradientUnits="userSpaceOnUse">
<stop stop-color="white"/>
<stop offset="0.02" stop-color="#EFF9FD"/>
<stop offset="0.1" stop-color="#B1E4F4"/>
<stop offset="0.19" stop-color="#7BD2ED"/>
<stop offset="0.27" stop-color="#4EC2E8"/>
<stop offset="0.35" stop-color="#2CB7E3"/>
<stop offset="0.42" stop-color="#14AEE0"/>
<stop offset="0.49" stop-color="#05A9DE"/>
<stop offset="0.54" stop-color="#00A8DE"/>
<stop offset="0.62" stop-color="#059BD5"/>
<stop offset="0.76" stop-color="#1479BE"/>
<stop offset="0.95" stop-color="#2C439A"/>
<stop offset="1" stop-color="#34328F"/>
</linearGradient>
<linearGradient id="paint34_linear_137_47594" x1="57.6139" y1="25.9103" x2="19.3507" y2="25.9103" gradientUnits="userSpaceOnUse">
<stop stop-color="white"/>
<stop offset="0.02" stop-color="#EFF9FD"/>
<stop offset="0.1" stop-color="#B1E4F4"/>
<stop offset="0.19" stop-color="#7BD2ED"/>
<stop offset="0.27" stop-color="#4EC2E8"/>
<stop offset="0.35" stop-color="#2CB7E3"/>
<stop offset="0.42" stop-color="#14AEE0"/>
<stop offset="0.49" stop-color="#05A9DE"/>
<stop offset="0.54" stop-color="#00A8DE"/>
<stop offset="0.62" stop-color="#059BD5"/>
<stop offset="0.76" stop-color="#1479BE"/>
<stop offset="0.95" stop-color="#2C439A"/>
<stop offset="1" stop-color="#34328F"/>
</linearGradient>
<linearGradient id="paint35_linear_137_47594" x1="57.631" y1="24.1213" x2="19.3247" y2="24.1213" gradientUnits="userSpaceOnUse">
<stop stop-color="white"/>
<stop offset="0.02" stop-color="#EFF9FD"/>
<stop offset="0.1" stop-color="#B1E4F4"/>
<stop offset="0.19" stop-color="#7BD2ED"/>
<stop offset="0.27" stop-color="#4EC2E8"/>
<stop offset="0.35" stop-color="#2CB7E3"/>
<stop offset="0.42" stop-color="#14AEE0"/>
<stop offset="0.49" stop-color="#05A9DE"/>
<stop offset="0.54" stop-color="#00A8DE"/>
<stop offset="0.62" stop-color="#059BD5"/>
<stop offset="0.76" stop-color="#1479BE"/>
<stop offset="0.95" stop-color="#2C439A"/>
<stop offset="1" stop-color="#34328F"/>
</linearGradient>
<linearGradient id="paint36_linear_137_47594" x1="57.6397" y1="24.0743" x2="19.3204" y2="24.0743" gradientUnits="userSpaceOnUse">
<stop stop-color="white"/>
<stop offset="0.02" stop-color="#EFF9FD"/>
<stop offset="0.1" stop-color="#B1E4F4"/>
<stop offset="0.19" stop-color="#7BD2ED"/>
<stop offset="0.27" stop-color="#4EC2E8"/>
<stop offset="0.35" stop-color="#2CB7E3"/>
<stop offset="0.42" stop-color="#14AEE0"/>
<stop offset="0.49" stop-color="#05A9DE"/>
<stop offset="0.54" stop-color="#00A8DE"/>
<stop offset="0.62" stop-color="#059BD5"/>
<stop offset="0.76" stop-color="#1479BE"/>
<stop offset="0.95" stop-color="#2C439A"/>
<stop offset="1" stop-color="#34328F"/>
</linearGradient>
<linearGradient id="paint37_linear_137_47594" x1="57.6093" y1="30.9401" x2="19.3548" y2="30.9401" gradientUnits="userSpaceOnUse">
<stop stop-color="white"/>
<stop offset="0.02" stop-color="#EFF9FD"/>
<stop offset="0.1" stop-color="#B1E4F4"/>
<stop offset="0.19" stop-color="#7BD2ED"/>
<stop offset="0.27" stop-color="#4EC2E8"/>
<stop offset="0.35" stop-color="#2CB7E3"/>
<stop offset="0.42" stop-color="#14AEE0"/>
<stop offset="0.49" stop-color="#05A9DE"/>
<stop offset="0.54" stop-color="#00A8DE"/>
<stop offset="0.62" stop-color="#059BD5"/>
<stop offset="0.76" stop-color="#1479BE"/>
<stop offset="0.95" stop-color="#2C439A"/>
<stop offset="1" stop-color="#34328F"/>
</linearGradient>
<linearGradient id="paint38_linear_137_47594" x1="67.4398" y1="27.9946" x2="16.6499" y2="27.9902" gradientUnits="userSpaceOnUse">
<stop stop-color="white"/>
<stop offset="0.02" stop-color="#EFF9FD"/>
<stop offset="0.1" stop-color="#B1E4F4"/>
<stop offset="0.19" stop-color="#7BD2ED"/>
<stop offset="0.27" stop-color="#4EC2E8"/>
<stop offset="0.35" stop-color="#2CB7E3"/>
<stop offset="0.42" stop-color="#14AEE0"/>
<stop offset="0.49" stop-color="#05A9DE"/>
<stop offset="0.54" stop-color="#00A8DE"/>
<stop offset="0.62" stop-color="#059BD5"/>
<stop offset="0.76" stop-color="#1479BE"/>
<stop offset="0.95" stop-color="#2C439A"/>
<stop offset="1" stop-color="#34328F"/>
</linearGradient>
<clipPath id="clip0_137_47594">
<rect width="146" height="33" fill="white"/>
</clipPath>
</defs>
</svg>
